<?xml version="1.0" encoding="UTF-8" standalone="no"?>
<!DOCTYPE svg PUBLIC "-//W3C//DTD SVG 1.1//EN"
 "http://www.w3.org/Graphics/SVG/1.1/DTD/svg11.dtd">
<!-- Generated by graphviz version 5.0.0 (20220707.1540)
 -->
<!-- Title: dependencies Pages: 1 -->
<svg width="2069pt" height="323pt"
 viewBox="0.00 0.00 2069.00 322.80" xmlns="http://www.w3.org/2000/svg" xmlns:xlink="http://www.w3.org/1999/xlink">
<g id="graph0" class="graph" transform="scale(1 1) rotate(0) translate(4 318.8)">
<title>dependencies</title>
<polygon fill="white" stroke="transparent" points="-4,4 -4,-318.8 2065,-318.8 2065,4 -4,4"/>
<text text-anchor="middle" x="1030.5" y="-8.2" font-family="sans-serif" font-size="14.00">dependencies</text>
<g id="clust1" class="cluster">
<title>cluster_AppModule</title>
<polygon fill="none" stroke="black" stroke-dasharray="1,5" points="466,-32.8 466,-306.8 1729,-306.8 1729,-32.8 466,-32.8"/>
</g>
<g id="clust2" class="cluster">
<title>cluster_AppModule_declarations</title>
<polygon fill="none" stroke="black" points="743,-116.8 743,-168.8 1721,-168.8 1721,-116.8 743,-116.8"/>
</g>
<g id="clust10" class="cluster">
<title>cluster_AppModule_imports</title>
<polygon fill="none" stroke="black" points="474,-40.8 474,-168.8 735,-168.8 735,-40.8 474,-40.8"/>
</g>
<g id="clust12" class="cluster">
<title>cluster_AppModule_bootstrap</title>
<polygon fill="none" stroke="black" points="938,-246.8 938,-298.8 1062,-298.8 1062,-246.8 938,-246.8"/>
</g>
<g id="clust20" class="cluster">
<title>cluster_MovieModule</title>
<polygon fill="none" stroke="black" stroke-dasharray="1,5" points="8,-32.8 8,-100.8 458,-100.8 458,-32.8 8,-32.8"/>
</g>
<g id="clust21" class="cluster">
<title>cluster_MovieModule_declarations</title>
<polygon fill="none" stroke="black" points="316,-40.8 316,-92.8 450,-92.8 450,-40.8 316,-40.8"/>
</g>
<g id="clust24" class="cluster">
<title>cluster_MovieModule_exports</title>
<polygon fill="none" stroke="black" points="170,-40.8 170,-92.8 308,-92.8 308,-40.8 170,-40.8"/>
</g>
<g id="clust26" class="cluster">
<title>cluster_MovieModule_providers</title>
<polygon fill="none" stroke="black" points="16,-40.8 16,-92.8 162,-92.8 162,-40.8 16,-40.8"/>
</g>
<g id="clust27" class="cluster">
<title>cluster_SharedModule</title>
<polygon fill="none" stroke="black" stroke-dasharray="1,5" points="1737,-108.8 1737,-176.8 2053,-176.8 2053,-108.8 1737,-108.8"/>
</g>
<g id="clust28" class="cluster">
<title>cluster_SharedModule_declarations</title>
<polygon fill="none" stroke="black" points="1901,-116.8 1901,-168.8 2045,-168.8 2045,-116.8 1901,-116.8"/>
</g>
<g id="clust31" class="cluster">
<title>cluster_SharedModule_exports</title>
<polygon fill="none" stroke="black" points="1745,-116.8 1745,-168.8 1893,-168.8 1893,-116.8 1745,-116.8"/>
</g>
<!-- AppComponent -->
<g id="node1" class="node">
<title>AppComponent</title>
<polygon fill="#ffffb3" stroke="black" points="1247.94,-160.8 1142.06,-160.8 1142.06,-124.8 1247.94,-124.8 1247.94,-160.8"/>
<text text-anchor="middle" x="1195" y="-138.6" font-family="Times,serif" font-size="14.00">AppComponent</text>
</g>
<!-- AppModule -->
<g id="node8" class="node">
<title>AppModule</title>
<polygon fill="#8dd3c7" stroke="black" points="1041.66,-225.8 1038.66,-229.8 1017.66,-229.8 1014.66,-225.8 958.34,-225.8 958.34,-189.8 1041.66,-189.8 1041.66,-225.8"/>
<text text-anchor="middle" x="1000" y="-203.6" font-family="Times,serif" font-size="14.00">AppModule</text>
</g>
<!-- AppComponent&#45;&gt;AppModule -->
<g id="edge1" class="edge">
<title>AppComponent&#45;&gt;AppModule</title>
<path fill="none" stroke="black" d="M1195,-160.81C1195,-176.85 1195,-197.8 1195,-197.8 1195,-197.8 1051.83,-197.8 1051.83,-197.8"/>
<polygon fill="black" stroke="black" points="1051.83,-194.3 1041.83,-197.8 1051.83,-201.3 1051.83,-194.3"/>
</g>
<!-- HomeComponent -->
<g id="node2" class="node">
<title>HomeComponent</title>
<polygon fill="#ffffb3" stroke="black" points="1124.55,-160.8 1009.45,-160.8 1009.45,-124.8 1124.55,-124.8 1124.55,-160.8"/>
<text text-anchor="middle" x="1067" y="-138.6" font-family="Times,serif" font-size="14.00">HomeComponent</text>
</g>
<!-- HomeComponent&#45;&gt;AppModule -->
<g id="edge2" class="edge">
<title>HomeComponent&#45;&gt;AppModule</title>
<path fill="none" stroke="black" d="M1025.53,-160.91C1025.53,-160.91 1025.53,-179.79 1025.53,-179.79"/>
<polygon fill="black" stroke="black" points="1022.03,-179.79 1025.53,-189.79 1029.03,-179.79 1022.03,-179.79"/>
</g>
<!-- MenuComponent -->
<g id="node3" class="node">
<title>MenuComponent</title>
<polygon fill="#ffffb3" stroke="black" points="990.99,-160.8 877.01,-160.8 877.01,-124.8 990.99,-124.8 990.99,-160.8"/>
<text text-anchor="middle" x="934" y="-138.6" font-family="Times,serif" font-size="14.00">MenuComponent</text>
</g>
<!-- MenuComponent&#45;&gt;AppModule -->
<g id="edge3" class="edge">
<title>MenuComponent&#45;&gt;AppModule</title>
<path fill="none" stroke="black" d="M974.58,-160.91C974.58,-160.91 974.58,-179.79 974.58,-179.79"/>
<polygon fill="black" stroke="black" points="971.08,-179.79 974.58,-189.79 978.08,-179.79 971.08,-179.79"/>
</g>
<!-- SeenComponent -->
<g id="node4" class="node">
<title>SeenComponent</title>
<polygon fill="#ffffb3" stroke="black" points="859.05,-160.8 750.95,-160.8 750.95,-124.8 859.05,-124.8 859.05,-160.8"/>
<text text-anchor="middle" x="805" y="-138.6" font-family="Times,serif" font-size="14.00">SeenComponent</text>
</g>
<!-- SeenComponent&#45;&gt;AppModule -->
<g id="edge4" class="edge">
<title>SeenComponent&#45;&gt;AppModule</title>
<path fill="none" stroke="black" d="M805,-160.83C805,-177.2 805,-198.8 805,-198.8 805,-198.8 948.17,-198.8 948.17,-198.8"/>
<polygon fill="black" stroke="black" points="948.17,-202.3 958.17,-198.8 948.17,-195.3 948.17,-202.3"/>
</g>
<!-- SeenitemComponent -->
<g id="node5" class="node">
<title>SeenitemComponent</title>
<polygon fill="#ffffb3" stroke="black" points="1712.93,-160.8 1579.07,-160.8 1579.07,-124.8 1712.93,-124.8 1712.93,-160.8"/>
<text text-anchor="middle" x="1646" y="-138.6" font-family="Times,serif" font-size="14.00">SeenitemComponent</text>
</g>
<!-- SeenitemComponent&#45;&gt;AppModule -->
<g id="edge5" class="edge">
<title>SeenitemComponent&#45;&gt;AppModule</title>
<path fill="none" stroke="black" d="M1646,-160.81C1646,-183.29 1646,-218.8 1646,-218.8 1646,-218.8 1051.89,-218.8 1051.89,-218.8"/>
<polygon fill="black" stroke="black" points="1051.89,-215.3 1041.89,-218.8 1051.89,-222.3 1051.89,-215.3"/>
</g>
<!-- WatchitemComponent -->
<g id="node6" class="node">
<title>WatchitemComponent</title>
<polygon fill="#ffffb3" stroke="black" points="1561.25,-160.8 1418.75,-160.8 1418.75,-124.8 1561.25,-124.8 1561.25,-160.8"/>
<text text-anchor="middle" x="1490" y="-138.6" font-family="Times,serif" font-size="14.00">WatchitemComponent</text>
</g>
<!-- WatchitemComponent&#45;&gt;AppModule -->
<g id="edge6" class="edge">
<title>WatchitemComponent&#45;&gt;AppModule</title>
<path fill="none" stroke="black" d="M1490,-160.93C1490,-181.37 1490,-211.8 1490,-211.8 1490,-211.8 1051.78,-211.8 1051.78,-211.8"/>
<polygon fill="black" stroke="black" points="1051.78,-208.3 1041.78,-211.8 1051.78,-215.3 1051.78,-208.3"/>
</g>
<!-- WatchlistComponent -->
<g id="node7" class="node">
<title>WatchlistComponent</title>
<polygon fill="#ffffb3" stroke="black" points="1400.48,-160.8 1265.52,-160.8 1265.52,-124.8 1400.48,-124.8 1400.48,-160.8"/>
<text text-anchor="middle" x="1333" y="-138.6" font-family="Times,serif" font-size="14.00">WatchlistComponent</text>
</g>
<!-- WatchlistComponent&#45;&gt;AppModule -->
<g id="edge7" class="edge">
<title>WatchlistComponent&#45;&gt;AppModule</title>
<path fill="none" stroke="black" d="M1333,-161.07C1333,-179.36 1333,-204.8 1333,-204.8 1333,-204.8 1051.84,-204.8 1051.84,-204.8"/>
<polygon fill="black" stroke="black" points="1051.84,-201.3 1041.84,-204.8 1051.84,-208.3 1051.84,-201.3"/>
</g>
<!-- AppComponent  -->
<g id="node12" class="node">
<title>AppComponent </title>
<polygon fill="#80b1d3" stroke="black" points="1054.44,-290.8 945.56,-290.8 945.56,-254.8 1054.44,-254.8 1054.44,-290.8"/>
<text text-anchor="middle" x="1000" y="-268.6" font-family="Times,serif" font-size="14.00">AppComponent </text>
</g>
<!-- AppModule&#45;&gt;AppComponent  -->
<g id="edge11" class="edge">
<title>AppModule&#45;&gt;AppComponent </title>
<path fill="none" stroke="black" stroke-dasharray="1,5" d="M1000,-225.91C1000,-225.91 1000,-244.79 1000,-244.79"/>
<polygon fill="black" stroke="black" points="996.5,-244.79 1000,-254.79 1003.5,-244.79 996.5,-244.79"/>
</g>
<!-- AppRoutingModule -->
<g id="node9" class="node">
<title>AppRoutingModule</title>
<polygon fill="#8dd3c7" stroke="black" points="610.28,-84.8 607.28,-88.8 586.28,-88.8 583.28,-84.8 481.72,-84.8 481.72,-48.8 610.28,-48.8 610.28,-84.8"/>
<text text-anchor="middle" x="546" y="-62.6" font-family="Times,serif" font-size="14.00">AppRoutingModule</text>
</g>
<!-- AppRoutingModule&#45;&gt;AppModule -->
<g id="edge8" class="edge">
<title>AppRoutingModule&#45;&gt;AppModule</title>
<path fill="none" stroke="black" d="M594.22,-84.94C594.22,-123.03 594.22,-207.8 594.22,-207.8 594.22,-207.8 948.1,-207.8 948.1,-207.8"/>
<polygon fill="black" stroke="black" points="948.1,-211.3 958.1,-207.8 948.1,-204.3 948.1,-211.3"/>
</g>
<!-- MovieModule -->
<g id="node10" class="node">
<title>MovieModule</title>
<polygon fill="#8dd3c7" stroke="black" points="578.1,-160.8 575.1,-164.8 554.1,-164.8 551.1,-160.8 481.9,-160.8 481.9,-124.8 578.1,-124.8 578.1,-160.8"/>
<text text-anchor="middle" x="530" y="-138.6" font-family="Times,serif" font-size="14.00">MovieModule</text>
</g>
<!-- MovieModule&#45;&gt;AppModule -->
<g id="edge9" class="edge">
<title>MovieModule&#45;&gt;AppModule</title>
<path fill="none" stroke="black" d="M530,-161.09C530,-183.01 530,-216.8 530,-216.8 530,-216.8 948.29,-216.8 948.29,-216.8"/>
<polygon fill="black" stroke="black" points="948.29,-220.3 958.29,-216.8 948.29,-213.3 948.29,-220.3"/>
</g>
<!-- MovieComponent  -->
<g id="node14" class="node">
<title>MovieComponent </title>
<polygon fill="#fb8072" stroke="black" points="299.88,-84.8 178.12,-84.8 178.12,-48.8 299.88,-48.8 299.88,-84.8"/>
<text text-anchor="middle" x="239" y="-62.6" font-family="Times,serif" font-size="14.00">MovieComponent </text>
</g>
<!-- MovieModule&#45;&gt;MovieComponent  -->
<g id="edge14" class="edge">
<title>MovieModule&#45;&gt;MovieComponent </title>
<path fill="none" stroke="black" stroke-dasharray="5,2" d="M481.95,-142.8C399.3,-142.8 239,-142.8 239,-142.8 239,-142.8 239,-94.81 239,-94.81"/>
<polygon fill="black" stroke="black" points="242.5,-94.81 239,-84.81 235.5,-94.81 242.5,-94.81"/>
</g>
<!-- SharedModule -->
<g id="node11" class="node">
<title>SharedModule</title>
<polygon fill="#8dd3c7" stroke="black" points="727.43,-84.8 724.43,-88.8 703.43,-88.8 700.43,-84.8 628.57,-84.8 628.57,-48.8 727.43,-48.8 727.43,-84.8"/>
<text text-anchor="middle" x="678" y="-62.6" font-family="Times,serif" font-size="14.00">SharedModule</text>
</g>
<!-- SharedModule&#45;&gt;AppModule -->
<g id="edge10" class="edge">
<title>SharedModule&#45;&gt;AppModule</title>
<path fill="none" stroke="black" d="M727.27,-75.8C817.51,-75.8 1000.11,-75.8 1000.11,-75.8 1000.11,-75.8 1000.11,-179.72 1000.11,-179.72"/>
<polygon fill="black" stroke="black" points="996.61,-179.72 1000.11,-189.72 1003.61,-179.72 996.61,-179.72"/>
</g>
<!-- SharedModule&#45;&gt;MovieModule -->
<g id="edge13" class="edge">
<title>SharedModule&#45;&gt;MovieModule</title>
<path fill="none" stroke="black" d="M678,-84.81C678,-107.29 678,-142.8 678,-142.8 678,-142.8 588.46,-142.8 588.46,-142.8"/>
<polygon fill="black" stroke="black" points="588.46,-139.3 578.46,-142.8 588.46,-146.3 588.46,-139.3"/>
</g>
<!-- ShortenContentPipe  -->
<g id="node17" class="node">
<title>ShortenContentPipe </title>
<polygon fill="#fb8072" stroke="black" points="1885.27,-160.8 1752.73,-160.8 1752.73,-124.8 1885.27,-124.8 1885.27,-160.8"/>
<text text-anchor="middle" x="1819" y="-138.6" font-family="Times,serif" font-size="14.00">ShortenContentPipe </text>
</g>
<!-- SharedModule&#45;&gt;ShortenContentPipe  -->
<g id="edge17" class="edge">
<title>SharedModule&#45;&gt;ShortenContentPipe </title>
<path fill="none" stroke="black" stroke-dasharray="5,2" d="M727.39,-66.8C946.4,-66.8 1819,-66.8 1819,-66.8 1819,-66.8 1819,-114.79 1819,-114.79"/>
<polygon fill="black" stroke="black" points="1815.5,-114.79 1819,-124.79 1822.5,-114.79 1815.5,-114.79"/>
</g>
<!-- MovieComponent -->
<g id="node13" class="node">
<title>MovieComponent</title>
<polygon fill="#ffffb3" stroke="black" points="441.88,-84.8 324.12,-84.8 324.12,-48.8 441.88,-48.8 441.88,-84.8"/>
<text text-anchor="middle" x="383" y="-62.6" font-family="Times,serif" font-size="14.00">MovieComponent</text>
</g>
<!-- MovieComponent&#45;&gt;MovieModule -->
<g id="edge12" class="edge">
<title>MovieComponent&#45;&gt;MovieModule</title>
<path fill="none" stroke="black" d="M383,-85.11C383,-104.95 383,-133.8 383,-133.8 383,-133.8 471.87,-133.8 471.87,-133.8"/>
<polygon fill="black" stroke="black" points="471.87,-137.3 481.87,-133.8 471.87,-130.3 471.87,-137.3"/>
</g>
<!-- MovieService -->
<g id="node15" class="node">
<title>MovieService</title>
<ellipse fill="#fdb462" stroke="black" cx="89" cy="-66.8" rx="65.41" ry="18"/>
<text text-anchor="middle" x="89" y="-62.6" font-family="Times,serif" font-size="14.00">MovieService</text>
</g>
<!-- MovieService&#45;&gt;MovieModule -->
<g id="edge15" class="edge">
<title>MovieService&#45;&gt;MovieModule</title>
<path fill="none" stroke="black" d="M89,-84.83C89,-109.78 89,-151.8 89,-151.8 89,-151.8 471.54,-151.8 471.54,-151.8"/>
<polygon fill="black" stroke="black" points="471.54,-155.3 481.54,-151.8 471.54,-148.3 471.54,-155.3"/>
</g>
<!-- ShortenContentPipe -->
<g id="node16" class="node">
<title>ShortenContentPipe</title>
<polygon fill="#ffffb3" stroke="black" points="2037.27,-160.8 1908.73,-160.8 1908.73,-124.8 2037.27,-124.8 2037.27,-160.8"/>
<text text-anchor="middle" x="1973" y="-138.6" font-family="Times,serif" font-size="14.00">ShortenContentPipe</text>
</g>
<!-- ShortenContentPipe&#45;&gt;SharedModule -->
<g id="edge16" class="edge">
<title>ShortenContentPipe&#45;&gt;SharedModule</title>
<path fill="none" stroke="black" d="M1973,-124.77C1973,-99.82 1973,-57.8 1973,-57.8 1973,-57.8 737.58,-57.8 737.58,-57.8"/>
<polygon fill="black" stroke="black" points="737.58,-54.3 727.58,-57.8 737.58,-61.3 737.58,-54.3"/>
</g>
</g>
</svg>
