<?xml version="1.0" encoding="UTF-8" standalone="no"?>
<!DOCTYPE svg PUBLIC "-//W3C//DTD SVG 1.1//EN"
 "http://www.w3.org/Graphics/SVG/1.1/DTD/svg11.dtd">
<!-- Generated by graphviz version 5.0.0 (20220707.1540)
 -->
<!-- Title: dependencies Pages: 1 -->
<svg width="450pt" height="247pt"
 viewBox="0.00 0.00 450.00 246.80" xmlns="http://www.w3.org/2000/svg" xmlns:xlink="http://www.w3.org/1999/xlink">
<g id="graph0" class="graph" transform="scale(1 1) rotate(0) translate(4 242.8)">
<title>dependencies</title>
<polygon fill="white" stroke="transparent" points="-4,4 -4,-242.8 446,-242.8 446,4 -4,4"/>
<text text-anchor="middle" x="221" y="-8.2" font-family="sans-serif" font-size="14.00">dependencies</text>
<g id="clust1" class="cluster">
<title>cluster_MovieModule</title>
<polygon fill="none" stroke="black" stroke-dasharray="1,5" points="8,-32.8 8,-230.8 434,-230.8 434,-32.8 8,-32.8"/>
</g>
<g id="clust4" class="cluster">
<title>cluster_MovieModule_imports</title>
<polygon fill="none" stroke="black" points="312,-40.8 312,-92.8 426,-92.8 426,-40.8 312,-40.8"/>
</g>
<g id="clust5" class="cluster">
<title>cluster_MovieModule_exports</title>
<polygon fill="none" stroke="black" points="168,-170.8 168,-222.8 306,-222.8 306,-170.8 168,-170.8"/>
</g>
<g id="clust2" class="cluster">
<title>cluster_MovieModule_declarations</title>
<polygon fill="none" stroke="black" points="170,-40.8 170,-92.8 304,-92.8 304,-40.8 170,-40.8"/>
</g>
<g id="clust7" class="cluster">
<title>cluster_MovieModule_providers</title>
<polygon fill="none" stroke="black" points="16,-40.8 16,-92.8 162,-92.8 162,-40.8 16,-40.8"/>
</g>
<!-- MovieComponent -->
<g id="node1" class="node">
<title>MovieComponent</title>
<polygon fill="#ffffb3" stroke="black" points="295.88,-84.8 178.12,-84.8 178.12,-48.8 295.88,-48.8 295.88,-84.8"/>
<text text-anchor="middle" x="237" y="-62.6" font-family="Times,serif" font-size="14.00">MovieComponent</text>
</g>
<!-- MovieModule -->
<g id="node2" class="node">
<title>MovieModule</title>
<polygon fill="#8dd3c7" stroke="black" points="285.1,-149.8 282.1,-153.8 261.1,-153.8 258.1,-149.8 188.9,-149.8 188.9,-113.8 285.1,-113.8 285.1,-149.8"/>
<text text-anchor="middle" x="237" y="-127.6" font-family="Times,serif" font-size="14.00">MovieModule</text>
</g>
<!-- MovieComponent&#45;&gt;MovieModule -->
<g id="edge1" class="edge">
<title>MovieComponent&#45;&gt;MovieModule</title>
<path fill="none" stroke="black" d="M237,-84.91C237,-84.91 237,-103.79 237,-103.79"/>
<polygon fill="black" stroke="black" points="233.5,-103.79 237,-113.79 240.5,-103.79 233.5,-103.79"/>
</g>
<!-- MovieComponent  -->
<g id="node4" class="node">
<title>MovieComponent </title>
<polygon fill="#fb8072" stroke="black" points="297.88,-214.8 176.12,-214.8 176.12,-178.8 297.88,-178.8 297.88,-214.8"/>
<text text-anchor="middle" x="237" y="-192.6" font-family="Times,serif" font-size="14.00">MovieComponent </text>
</g>
<!-- MovieModule&#45;&gt;MovieComponent  -->
<g id="edge3" class="edge">
<title>MovieModule&#45;&gt;MovieComponent </title>
<path fill="none" stroke="black" stroke-dasharray="5,2" d="M237,-149.91C237,-149.91 237,-168.79 237,-168.79"/>
<polygon fill="black" stroke="black" points="233.5,-168.79 237,-178.79 240.5,-168.79 233.5,-168.79"/>
</g>
<!-- SharedModule -->
<g id="node3" class="node">
<title>SharedModule</title>
<polygon fill="#8dd3c7" stroke="black" points="418.43,-84.8 415.43,-88.8 394.43,-88.8 391.43,-84.8 319.57,-84.8 319.57,-48.8 418.43,-48.8 418.43,-84.8"/>
<text text-anchor="middle" x="369" y="-62.6" font-family="Times,serif" font-size="14.00">SharedModule</text>
</g>
<!-- SharedModule&#45;&gt;MovieModule -->
<g id="edge2" class="edge">
<title>SharedModule&#45;&gt;MovieModule</title>
<path fill="none" stroke="black" d="M369,-84.91C369,-104.14 369,-131.8 369,-131.8 369,-131.8 295.4,-131.8 295.4,-131.8"/>
<polygon fill="black" stroke="black" points="295.4,-128.3 285.4,-131.8 295.4,-135.3 295.4,-128.3"/>
</g>
<!-- MovieService -->
<g id="node5" class="node">
<title>MovieService</title>
<ellipse fill="#fdb462" stroke="black" cx="89" cy="-66.8" rx="65.41" ry="18"/>
<text text-anchor="middle" x="89" y="-62.6" font-family="Times,serif" font-size="14.00">MovieService</text>
</g>
<!-- MovieService&#45;&gt;MovieModule -->
<g id="edge4" class="edge">
<title>MovieService&#45;&gt;MovieModule</title>
<path fill="none" stroke="black" d="M89,-84.91C89,-104.14 89,-131.8 89,-131.8 89,-131.8 178.54,-131.8 178.54,-131.8"/>
<polygon fill="black" stroke="black" points="178.54,-135.3 188.54,-131.8 178.54,-128.3 178.54,-135.3"/>
</g>
</g>
</svg>
