<?xml version="1.0" encoding="UTF-8" standalone="no"?>
<!DOCTYPE svg PUBLIC "-//W3C//DTD SVG 1.1//EN"
 "http://www.w3.org/Graphics/SVG/1.1/DTD/svg11.dtd">
<!-- Generated by graphviz version 5.0.0 (20220707.1540)
 -->
<!-- Title: dependencies Pages: 1 -->
<svg width="1400pt" height="247pt"
 viewBox="0.00 0.00 1400.00 246.80" xmlns="http://www.w3.org/2000/svg" xmlns:xlink="http://www.w3.org/1999/xlink">
<g id="graph0" class="graph" transform="scale(1 1) rotate(0) translate(4 242.8)">
<title>dependencies</title>
<polygon fill="white" stroke="transparent" points="-4,4 -4,-242.8 1396,-242.8 1396,4 -4,4"/>
<text text-anchor="middle" x="696" y="-8.2" font-family="sans-serif" font-size="14.00">dependencies</text>
<g id="clust1" class="cluster">
<title>cluster_AppModule</title>
<polygon fill="none" stroke="black" stroke-dasharray="1,5" points="8,-32.8 8,-230.8 1384,-230.8 1384,-32.8 8,-32.8"/>
</g>
<g id="clust2" class="cluster">
<title>cluster_AppModule_declarations</title>
<polygon fill="none" stroke="black" points="398,-40.8 398,-92.8 1376,-92.8 1376,-40.8 398,-40.8"/>
</g>
<g id="clust10" class="cluster">
<title>cluster_AppModule_imports</title>
<polygon fill="none" stroke="black" points="16,-40.8 16,-92.8 390,-92.8 390,-40.8 16,-40.8"/>
</g>
<g id="clust12" class="cluster">
<title>cluster_AppModule_bootstrap</title>
<polygon fill="none" stroke="black" points="646,-170.8 646,-222.8 770,-222.8 770,-170.8 646,-170.8"/>
</g>
<!-- AppComponent -->
<g id="node1" class="node">
<title>AppComponent</title>
<polygon fill="#ffffb3" stroke="black" points="1367.94,-84.8 1262.06,-84.8 1262.06,-48.8 1367.94,-48.8 1367.94,-84.8"/>
<text text-anchor="middle" x="1315" y="-62.6" font-family="Times,serif" font-size="14.00">AppComponent</text>
</g>
<!-- AppModule -->
<g id="node8" class="node">
<title>AppModule</title>
<polygon fill="#8dd3c7" stroke="black" points="749.66,-149.8 746.66,-153.8 725.66,-153.8 722.66,-149.8 666.34,-149.8 666.34,-113.8 749.66,-113.8 749.66,-149.8"/>
<text text-anchor="middle" x="708" y="-127.6" font-family="Times,serif" font-size="14.00">AppModule</text>
</g>
<!-- AppComponent&#45;&gt;AppModule -->
<g id="edge1" class="edge">
<title>AppComponent&#45;&gt;AppModule</title>
<path fill="none" stroke="black" d="M1315,-84.81C1315,-107.29 1315,-142.8 1315,-142.8 1315,-142.8 759.72,-142.8 759.72,-142.8"/>
<polygon fill="black" stroke="black" points="759.72,-139.3 749.72,-142.8 759.72,-146.3 759.72,-139.3"/>
</g>
<!-- HomeComponent -->
<g id="node2" class="node">
<title>HomeComponent</title>
<polygon fill="#ffffb3" stroke="black" points="1244.55,-84.8 1129.45,-84.8 1129.45,-48.8 1244.55,-48.8 1244.55,-84.8"/>
<text text-anchor="middle" x="1187" y="-62.6" font-family="Times,serif" font-size="14.00">HomeComponent</text>
</g>
<!-- HomeComponent&#45;&gt;AppModule -->
<g id="edge2" class="edge">
<title>HomeComponent&#45;&gt;AppModule</title>
<path fill="none" stroke="black" d="M1187,-84.93C1187,-105.37 1187,-135.8 1187,-135.8 1187,-135.8 759.67,-135.8 759.67,-135.8"/>
<polygon fill="black" stroke="black" points="759.67,-132.3 749.67,-135.8 759.67,-139.3 759.67,-132.3"/>
</g>
<!-- MenuComponent -->
<g id="node3" class="node">
<title>MenuComponent</title>
<polygon fill="#ffffb3" stroke="black" points="1110.99,-84.8 997.01,-84.8 997.01,-48.8 1110.99,-48.8 1110.99,-84.8"/>
<text text-anchor="middle" x="1054" y="-62.6" font-family="Times,serif" font-size="14.00">MenuComponent</text>
</g>
<!-- MenuComponent&#45;&gt;AppModule -->
<g id="edge3" class="edge">
<title>MenuComponent&#45;&gt;AppModule</title>
<path fill="none" stroke="black" d="M1054,-85.07C1054,-103.36 1054,-128.8 1054,-128.8 1054,-128.8 759.74,-128.8 759.74,-128.8"/>
<polygon fill="black" stroke="black" points="759.74,-125.3 749.74,-128.8 759.74,-132.3 759.74,-125.3"/>
</g>
<!-- SeenComponent -->
<g id="node4" class="node">
<title>SeenComponent</title>
<polygon fill="#ffffb3" stroke="black" points="979.05,-84.8 870.95,-84.8 870.95,-48.8 979.05,-48.8 979.05,-84.8"/>
<text text-anchor="middle" x="925" y="-62.6" font-family="Times,serif" font-size="14.00">SeenComponent</text>
</g>
<!-- SeenComponent&#45;&gt;AppModule -->
<g id="edge4" class="edge">
<title>SeenComponent&#45;&gt;AppModule</title>
<path fill="none" stroke="black" d="M925,-84.81C925,-100.85 925,-121.8 925,-121.8 925,-121.8 759.84,-121.8 759.84,-121.8"/>
<polygon fill="black" stroke="black" points="759.84,-118.3 749.84,-121.8 759.84,-125.3 759.84,-118.3"/>
</g>
<!-- SeenitemComponent -->
<g id="node5" class="node">
<title>SeenitemComponent</title>
<polygon fill="#ffffb3" stroke="black" points="852.93,-84.8 719.07,-84.8 719.07,-48.8 852.93,-48.8 852.93,-84.8"/>
<text text-anchor="middle" x="786" y="-62.6" font-family="Times,serif" font-size="14.00">SeenitemComponent</text>
</g>
<!-- SeenitemComponent&#45;&gt;AppModule -->
<g id="edge5" class="edge">
<title>SeenitemComponent&#45;&gt;AppModule</title>
<path fill="none" stroke="black" d="M734.56,-84.91C734.56,-84.91 734.56,-103.79 734.56,-103.79"/>
<polygon fill="black" stroke="black" points="731.06,-103.79 734.56,-113.79 738.06,-103.79 731.06,-103.79"/>
</g>
<!-- WatchitemComponent -->
<g id="node6" class="node">
<title>WatchitemComponent</title>
<polygon fill="#ffffb3" stroke="black" points="701.25,-84.8 558.75,-84.8 558.75,-48.8 701.25,-48.8 701.25,-84.8"/>
<text text-anchor="middle" x="630" y="-62.6" font-family="Times,serif" font-size="14.00">WatchitemComponent</text>
</g>
<!-- WatchitemComponent&#45;&gt;AppModule -->
<g id="edge6" class="edge">
<title>WatchitemComponent&#45;&gt;AppModule</title>
<path fill="none" stroke="black" d="M683.77,-84.91C683.77,-84.91 683.77,-103.79 683.77,-103.79"/>
<polygon fill="black" stroke="black" points="680.27,-103.79 683.77,-113.79 687.27,-103.79 680.27,-103.79"/>
</g>
<!-- WatchlistComponent -->
<g id="node7" class="node">
<title>WatchlistComponent</title>
<polygon fill="#ffffb3" stroke="black" points="540.48,-84.8 405.52,-84.8 405.52,-48.8 540.48,-48.8 540.48,-84.8"/>
<text text-anchor="middle" x="473" y="-62.6" font-family="Times,serif" font-size="14.00">WatchlistComponent</text>
</g>
<!-- WatchlistComponent&#45;&gt;AppModule -->
<g id="edge7" class="edge">
<title>WatchlistComponent&#45;&gt;AppModule</title>
<path fill="none" stroke="black" d="M473,-84.81C473,-100.85 473,-121.8 473,-121.8 473,-121.8 656.26,-121.8 656.26,-121.8"/>
<polygon fill="black" stroke="black" points="656.26,-125.3 666.26,-121.8 656.26,-118.3 656.26,-125.3"/>
</g>
<!-- AppComponent  -->
<g id="node12" class="node">
<title>AppComponent </title>
<polygon fill="#80b1d3" stroke="black" points="762.44,-214.8 653.56,-214.8 653.56,-178.8 762.44,-178.8 762.44,-214.8"/>
<text text-anchor="middle" x="708" y="-192.6" font-family="Times,serif" font-size="14.00">AppComponent </text>
</g>
<!-- AppModule&#45;&gt;AppComponent  -->
<g id="edge11" class="edge">
<title>AppModule&#45;&gt;AppComponent </title>
<path fill="none" stroke="black" stroke-dasharray="1,5" d="M708,-149.91C708,-149.91 708,-168.79 708,-168.79"/>
<polygon fill="black" stroke="black" points="704.5,-168.79 708,-178.79 711.5,-168.79 704.5,-168.79"/>
</g>
<!-- AppRoutingModule -->
<g id="node9" class="node">
<title>AppRoutingModule</title>
<polygon fill="#8dd3c7" stroke="black" points="382.28,-84.8 379.28,-88.8 358.28,-88.8 355.28,-84.8 253.72,-84.8 253.72,-48.8 382.28,-48.8 382.28,-84.8"/>
<text text-anchor="middle" x="318" y="-62.6" font-family="Times,serif" font-size="14.00">AppRoutingModule</text>
</g>
<!-- AppRoutingModule&#45;&gt;AppModule -->
<g id="edge8" class="edge">
<title>AppRoutingModule&#45;&gt;AppModule</title>
<path fill="none" stroke="black" d="M318,-85.07C318,-103.36 318,-128.8 318,-128.8 318,-128.8 656.26,-128.8 656.26,-128.8"/>
<polygon fill="black" stroke="black" points="656.26,-132.3 666.26,-128.8 656.26,-125.3 656.26,-132.3"/>
</g>
<!-- MovieModule -->
<g id="node10" class="node">
<title>MovieModule</title>
<polygon fill="#8dd3c7" stroke="black" points="236.1,-84.8 233.1,-88.8 212.1,-88.8 209.1,-84.8 139.9,-84.8 139.9,-48.8 236.1,-48.8 236.1,-84.8"/>
<text text-anchor="middle" x="188" y="-62.6" font-family="Times,serif" font-size="14.00">MovieModule</text>
</g>
<!-- MovieModule&#45;&gt;AppModule -->
<g id="edge9" class="edge">
<title>MovieModule&#45;&gt;AppModule</title>
<path fill="none" stroke="black" d="M188,-84.93C188,-105.37 188,-135.8 188,-135.8 188,-135.8 656.33,-135.8 656.33,-135.8"/>
<polygon fill="black" stroke="black" points="656.33,-139.3 666.33,-135.8 656.33,-132.3 656.33,-139.3"/>
</g>
<!-- SharedModule -->
<g id="node11" class="node">
<title>SharedModule</title>
<polygon fill="#8dd3c7" stroke="black" points="122.43,-84.8 119.43,-88.8 98.43,-88.8 95.43,-84.8 23.57,-84.8 23.57,-48.8 122.43,-48.8 122.43,-84.8"/>
<text text-anchor="middle" x="73" y="-62.6" font-family="Times,serif" font-size="14.00">SharedModule</text>
</g>
<!-- SharedModule&#45;&gt;AppModule -->
<g id="edge10" class="edge">
<title>SharedModule&#45;&gt;AppModule</title>
<path fill="none" stroke="black" d="M73,-84.81C73,-107.29 73,-142.8 73,-142.8 73,-142.8 656.34,-142.8 656.34,-142.8"/>
<polygon fill="black" stroke="black" points="656.34,-146.3 666.34,-142.8 656.34,-139.3 656.34,-146.3"/>
</g>
</g>
</svg>
